<svg width="120" height="120" viewBox="0 0 120 120" fill="none" xmlns="http://www.w3.org/2000/svg">
<path fill-rule="evenodd" clip-rule="evenodd" d="M120 8C120 3.58172 116.418 0 112 0H8C3.58172 0 0 3.58172 0 8V112C0 116.418 3.58172 120 8 120H112C116.418 120 120 116.418 120 112V8ZM34.919 96.2329C33.088 95.5671 30.7311 96.461 30.1824 98.3304L29.9945 98.9707C29.5984 100.32 30.1016 101.8 31.3569 102.435C32.3468 102.936 33.3871 103.344 34.4778 103.66C36.3406 104.199 38.473 104.468 40.8751 104.468C44.9438 104.468 48.1792 103.831 50.5813 102.557C53.0323 101.282 54.8706 99.4683 56.0962 97.1153C57.3217 94.7132 58.1305 91.8945 58.5227 88.6591C58.9639 85.4237 59.1845 81.8697 59.1845 77.997V55.6065C59.1845 53.312 57.3244 51.452 55.0299 51.452C52.7355 51.452 50.8754 53.312 50.8754 55.6065V79.1735C50.8754 82.2618 50.7283 84.9335 50.4342 87.1885C50.1891 89.4435 49.6989 91.3063 48.9636 92.7769C48.2773 94.1985 47.2478 95.277 45.8752 96.0123C44.5517 96.6986 42.8114 97.0418 40.6545 97.0418C38.4485 97.0418 36.5367 96.7721 34.919 96.2329ZM95.6069 99.6154C95.6069 101.849 97.4176 103.66 99.6512 103.66C101.885 103.66 103.695 101.849 103.695 99.6154V80.2029C103.695 78.095 103.524 76.1097 103.181 74.2469C102.887 72.335 102.298 70.6683 101.416 69.2467C100.583 67.776 99.4061 66.624 97.8864 65.7907C96.4158 64.9573 94.5285 64.5406 92.2244 64.5406C89.9695 64.5406 87.837 64.8838 85.8272 65.5701C83.8173 66.2564 82.0035 67.2368 80.3858 68.5114C79.1249 69.4965 76.5622 68.6477 76.5622 67.0476V66.8226C76.5622 65.9278 75.8368 65.2024 74.942 65.2024H72.8856C70.855 65.2024 69.209 66.8485 69.209 68.879V99.6154C69.209 101.849 71.0196 103.66 73.2532 103.66C75.4868 103.66 77.2975 101.849 77.2975 99.6154V81.9862C77.2975 81.1939 77.3974 80.3987 77.6999 79.6665C78.2385 78.3625 78.9867 77.1932 79.9446 76.1587C81.1702 74.7861 82.5427 73.7076 84.0624 72.9233C85.6311 72.1389 87.1998 71.7468 88.7685 71.7468C91.0234 71.7468 92.7147 72.5801 93.8421 74.2469C95.0187 75.9136 95.6069 78.5362 95.6069 82.1148V99.6154Z" fill="#333333"/>
</svg>
